<svg 
 xmlns="http://www.w3.org/2000/svg"
 xmlns:xlink="http://www.w3.org/1999/xlink"
 width="62px" height="6px">
<defs>
<linearGradient id="heading-dots" x1="0%" x2="70.711%" y1="70.711%" y2="0%">
  <stop offset="0%" stop-color="rgb(255,88,88)" stop-opacity="1" />
  <stop offset="100%" stop-color="rgb(248,87,166)" stop-opacity="1" />
</linearGradient>

</defs>
<path fill="url(#heading-dots)"
 d="M60.000,5.000 C58.895,5.000 58.000,4.105 58.000,3.000 C58.000,1.895 58.895,1.000 60.000,1.000 C61.105,1.000 62.000,1.895 62.000,3.000 C62.000,4.105 61.105,5.000 60.000,5.000 ZM46.000,5.000 C44.895,5.000 44.000,4.105 44.000,3.000 C44.000,1.895 44.895,1.000 46.000,1.000 C47.105,1.000 48.000,1.895 48.000,3.000 C48.000,4.105 47.105,5.000 46.000,5.000 ZM31.000,6.000 C29.343,6.000 28.000,4.657 28.000,3.000 C28.000,1.343 29.343,0.000 31.000,0.000 C32.657,0.000 34.000,1.343 34.000,3.000 C34.000,4.657 32.657,6.000 31.000,6.000 ZM16.000,5.000 C14.895,5.000 14.000,4.105 14.000,3.000 C14.000,1.895 14.895,1.000 16.000,1.000 C17.105,1.000 18.000,1.895 18.000,3.000 C18.000,4.105 17.105,5.000 16.000,5.000 ZM2.000,5.000 C0.895,5.000 -0.000,4.105 -0.000,3.000 C-0.000,1.895 0.895,1.000 2.000,1.000 C3.105,1.000 4.000,1.895 4.000,3.000 C4.000,4.105 3.105,5.000 2.000,5.000 Z"/>
</svg>