<?xml version="1.0" encoding="utf-8"?>
<!-- Generator: Adobe Illustrator 23.0.1, SVG Export Plug-In . SVG Version: 6.00 Build 0)  -->
<svg version="1.1" id="Layer_1" xmlns="http://www.w3.org/2000/svg" xmlns:xlink="http://www.w3.org/1999/xlink" x="0px" y="0px"
	 style="enable-background:new 0 0 22 22;" xml:space="preserve">
<style type="text/css">
	.st0{fill:#FFFFFF;}
	.st1{fill:url(#SVGID_1_);}
</style>
<g>
	<polygon class="st0" points="12,5.4 18,6.6 13.8,11.1 14.6,17.2 9,14.6 3.4,17.2 4.2,11.1 0,6.6 6,5.4 9,0 	"/>
	<linearGradient id="SVGID_1_" gradientUnits="userSpaceOnUse" x1="9" y1="17.2" x2="9" y2="-9.094947e-13">
		<stop  offset="0" style="stop-color:#F857A6"/>
		<stop  offset="1" style="stop-color:#FF5858"/>
	</linearGradient>
	<path class="st1" d="M9,2.1l2.1,3.8l0.2,0.4l0.5,0.1L16,7.2l-3,3.2l-0.3,0.3l0.1,0.5l0.6,4.3l-4-1.8L9,13.5l-0.4,0.2l-4,1.8
		l0.6-4.3l0.1-0.5l-0.3-0.3L2,7.2l4.2-0.8l0.5-0.1l0.2-0.4L9,2.1 M9,0L6,5.4L0,6.6l4.2,4.5l-0.8,6.1L9,14.6l5.6,2.6l-0.8-6.1L18,6.6
		l-6-1.2L9,0L9,0z"/>
</g>
</svg>
