<svg 
 xmlns="http://www.w3.org/2000/svg"
 xmlns:xlink="http://www.w3.org/1999/xlink"
 width="1680px" height="250px">
<defs>
<linearGradient id="PSgrad_0" x1="0%" x2="70.711%" y1="70.711%" y2="0%">
  <stop offset="0%" stop-color="rgb(255,88,88)" stop-opacity="1" />
  <stop offset="100%" stop-color="rgb(248,87,166)" stop-opacity="1" />
</linearGradient>

</defs>
<path fill-rule="evenodd"  fill="rgb(52, 49, 65)"
 d="M0.000,125.001 C49.492,125.001 85.047,170.000 145.000,170.000 C204.953,170.000 264.426,77.000 355.000,77.000 C445.574,77.000 477.559,124.000 529.000,124.000 C580.441,124.000 739.090,2.000 813.000,2.000 C886.910,2.000 973.898,105.000 1048.000,105.000 C1122.102,105.000 1164.297,51.999 1216.000,51.999 C1267.703,51.999 1320.676,131.000 1391.000,131.000 C1461.324,131.000 1542.738,0.000 1680.000,0.000 L1680.000,250.000 L0.000,250.000 L0.000,125.001 Z"/>
<path fill="url(#PSgrad_0)"
 d="M0.000,125.001 C49.492,125.001 85.047,170.000 145.000,170.000 C204.953,170.000 264.426,77.000 355.000,77.000 C445.574,77.000 477.559,124.000 529.000,124.000 C580.441,124.000 739.090,2.000 813.000,2.000 C886.910,2.000 973.898,105.000 1048.000,105.000 C1122.102,105.000 1164.297,51.999 1216.000,51.999 C1267.703,51.999 1320.676,131.000 1391.000,131.000 C1461.324,131.000 1542.738,0.000 1680.000,0.000 L1680.000,250.000 L0.000,250.000 L0.000,125.001 Z"/>
</svg>